# xmcd
#
# Track frame offsets:
#	150
#	14686
#	27096
#	40454
#	54684
#	69019
#	83326
#	99499
#	116162
#	133296
#	149736
#	165564
#	179105
#	192817
#	204731
#	218337
#	231937
#	245908
#	260240
#	273530
#	285696
#	297958
#	311309
#	324663
#
# Disc length: 4527 seconds
#
# Revision: 1
# Processed by: cddbd v1.5.2PL0 Copyright (c) Steve Scherf et al.
# Submitted via: audiograbber 1.83.01
#
DISCID=7a11ad18
DTITLE=John Lee Hooker - The Boogie Man [CD1) Boogie Chillen
DYEAR=2006
DGENRE=Blues
TTITLE0=Sally Mae
TTITLE1=War Is Over (Goodbye California)
TTITLE2=She Was In Chicago
TTITLE3=Boogie Chillen
TTITLE4=Stomp Boogie
TTITLE5=Who's Been Jiving You
TTITLE6=Black Man Blues
TTITLE7=Helpless Blues
TTITLE8=Goin' Mad Blues
TTITLE9=Low Down-Midnite Boogie
TTITLE10=Landing Blues
TTITLE11=Drifting From Door To Door
TTITLE12=Hobo Blues
TTITLE13=Howlin' Wolf
TTITLE14=Crawling King Snake 
TTITLE15=Miss Rosie Mae
TTITLE16=Highway Blues
TTITLE17=Whistlin' And Moanin' Blues
TTITLE18=Hoogie Boogie
TTITLE19=Miss Eloise, Miss Eloise
TTITLE20=Burnin' Hell
TTITLE21=Nightmare Blues
TTITLE22=Late Last Night
TTITLE23=Wandering Blues
EXTD=
EXTT0=
EXTT1=
EXTT2=
EXTT3=
EXTT4=
EXTT5=
EXTT6=
EXTT7=
EXTT8=
EXTT9=
EXTT10=
EXTT11=
EXTT12=
EXTT13=
EXTT14=
EXTT15=
EXTT16=
EXTT17=
EXTT18=
EXTT19=
EXTT20=
EXTT21=
EXTT22=
EXTT23=
PLAYORDER=
